<svg data-v-0dd9719b="" version="1.0" xmlns="http://www.w3.org/2000/svg" xmlns:xlink="http://www.w3.org/1999/xlink" width="100%" height="100%" viewBox="0 0 340.000000 250.000000" preserveAspectRatio="xMidYMid meet" color-interpolation-filters="sRGB" style="margin: auto;"> <rect data-v-0dd9719b="" x="0" y="0" width="100%" height="100%" fill="#ffffff" fill-opacity="1" class="background"></rect> <rect data-v-0dd9719b="" x="0" y="0" width="100%" height="100%" fill="url(#watermark)" fill-opacity="1" class="watermarklayer"></rect> <g data-v-0dd9719b="" fill="#26125b" class="icon-text-wrapper icon-svg-group iconsvg" transform="translate(43.350006103515625,94.96516036987305)"><g class="iconsvg-imagesvg" transform="translate(0,0)"><g><rect fill="#26125b" fill-opacity="0" stroke-width="2" x="0" y="0" width="60" height="60.069680829762525" class="image-rect"></rect> <svg x="0" y="0" width="60" height="60.069680829762525" filtersec="colorsb2770540832" class="image-svg-svg primary" style="overflow: visible;"><svg xmlns="http://www.w3.org/2000/svg" viewBox="0.026607513427734375 0 106.69338989257812 106.81771850585938"><title>资源 84</title><path d="M39.36 44.4c7.75 7.75 25.27 25.23 33.84 33.79a31.77 31.77 0 1 1-25.6-56l-17-17a53.37 53.37 0 1 0 71.08 71L90.9 65.38c-4.36-4.34-13.41-13.38-21-21z" fill="#26125b"></path><path d="M106.68.01h.01V0l-.01.01z" fill="#bb2e2e"></path><path d="M53.33 0a53.6 53.6 0 0 0-11.2 1.19l20.4 20.41h22.61v22.62l21.58 21.54L106.68 0z" fill="#26125b"></path></svg></svg> <!----></g></g> <g transform="translate(67,16.119948387145996)"><g data-gra="path-name" fill-rule="" class="tp-name iconsvg-namesvg" transform="translate(0,0)"><g transform="scale(1)"><g><path d="M13.61-2.27L13.51 0 16.22 0C16.22-0.11 16.22-7.94 16.22-8.05L8.2-8.05 8.2-5.93 13.55-5.93C13.33-4.1 11.46-2.2 8.72-2.2 5.37-2.2 3.69-4.53 3.69-7.55 3.69-10.49 5.72-12.75 8.74-12.75 11.05-12.75 12.53-11.67 13.1-9.95L16.18-9.95C15.45-13.72 12.84-15.32 8.72-15.32 3.9-15.32 0.86-12.3 0.86-7.55 0.86-2.83 3.6 0.22 8.41 0.22 11.84 0.22 13.16-1.45 13.51-2.27ZM26.56-15.1L22.87-15.1 17.45 0 20.6 0 24.62-11.97 24.83-11.97 29.13 0 32.49 0ZM34.07 0L36.98 0 36.98-5.33 40.37-5.33 43.19 0 46.47 0 42.95-5.83C44.79-6.73 45.61-8.72 45.61-10.33 45.61-13.38 43.71-15.1 40.3-15.1L34.07-15.1 34.07-12.56 39.98-12.56C41.92-12.56 42.87-11.76 42.87-10.27 42.87-8.67 41.75-7.75 40-7.75L34.07-7.75ZM55.04-1.96L57.04-1.96 61.38-9.67 61.49-9.67 61.49 0 64.4 0 64.4-15.1 61.44-15.1 56.22-5.46 56.14-5.46 50.96-15.1 48.05-15.1ZM48.05 0L50.87 0 50.87-5.93 48.05-11.24ZM90.59 0L93.44 0 93.44-15.1 90.66-15.1 90.66-4.7 90.55-4.7 83.26-15.1 67.14-15.1 67.14-12.28 82.2-12.28ZM81.08 0L83.9 0 83.9-6.49 81.08-10.53ZM78.31-6.21L78.31-8.89 67.14-8.89 67.14-6.21ZM67.14 0L78.31 0 78.31-2.85 67.14-2.85ZM95.03-15.1L95.03-12.28 107.03-12.28 107.03-15.1ZM99.59-10.36L99.59 0 102.5 0 102.5-10.36Z" transform="translate(-0.8600000143051147, 15.319999694824219)"></path></g> <!----> <!----> <!----> <!----> <!----> <!----> <g data-gra="path-name-1" fill="#26125b" transform="translate(109.16999816894531,0)"><g transform="scale(1)"><path d="M1.47 0L7.68 0C12.32 0 13.61-1.81 13.61-4.21 13.61-6.41 11.56-7.64 9.1-7.75L9.1-7.85C10.98-8.07 12.28-9.21 12.28-11.24 12.28-13.35 11.3-15.1 7.1-15.1L1.47-15.1ZM4.38-8.82L4.38-12.82 6.77-12.82C8.69-12.82 9.51-12.23 9.51-10.92 9.51-9.36 8.31-8.82 6.67-8.82ZM4.38-2.31L4.38-6.62 6.95-6.62C9.08-6.62 10.53-5.87 10.53-4.36 10.53-2.85 9.43-2.31 6.99-2.31ZM15.4 0L18.32 0 18.32-5.33 21.7-5.33 24.53 0 27.81 0 24.29-5.83C26.13-6.73 26.95-8.72 26.95-10.33 26.95-13.38 25.05-15.1 21.64-15.1L15.4-15.1 15.4-12.56 21.32-12.56C23.26-12.56 24.21-11.76 24.21-10.27 24.21-8.67 23.08-7.75 21.34-7.75L15.4-7.75ZM32.32-12.77L32.32-15.1 29.38-15.1 29.38-12.77ZM29.38 0L32.3 0 32.3-10.79 29.38-10.79ZM35.1-15.1L35.1-12.28 40.39-12.28C42.95-12.28 44.87-11.28 44.87-7.55 44.87-3.8 42.98-2.85 40.41-2.85L35.1-2.85 35.1 0 41.34 0C45.93 0 47.94-3.28 47.94-7.55 47.94-11.84 45.93-15.1 41.34-15.1ZM52.49-7.55C52.49-10.49 54.52-12.75 57.54-12.75 59.85-12.75 61.34-11.67 61.9-9.95L64.98-9.95C64.25-13.72 61.64-15.32 57.52-15.32 52.71-15.32 49.66-12.3 49.66-7.55ZM57.3 0L62.31-3.6 62.31 0 65.02 0C65.02-0.11 65.02-7.94 65.02-8.05L57-8.05 57-5.93 61.36-5.93 53.12 0ZM78.6-12.28L78.6-15.1 67.42-15.1 67.42-12.28ZM78.6-6.21L78.6-8.89 67.42-8.89 67.42-6.21ZM67.42 0L78.6 0 78.6-2.85 67.42-2.85Z" transform="translate(-1.4700000286102295, 15.319999694824219)"></path></g></g></g></g> <g data-gra="path-slogan" fill-rule="" class="tp-slogan iconsvg-slogansvg" fill="#bb2e2e" transform="translate(5.43499755859375,21.539999961853027)"><rect width="0"></rect> <rect x="178.42999267578125" width="0"></rect> <g transform="translate(0,0)"><g transform="scale(1)"><path d="M0.21-6.07L1.50 0L2.41 0L3.31-3.65C3.36-3.89 3.41-4.12 3.46-4.34C3.52-4.57 3.57-4.80 3.62-5.03L3.65-5.03C3.70-4.80 3.75-4.57 3.80-4.34C3.84-4.12 3.89-3.89 3.95-3.65L4.87 0L5.79 0L7.05-6.07L6.31-6.07L5.67-2.77C5.61-2.44 5.55-2.11 5.50-1.79C5.44-1.47 5.38-1.14 5.33-0.80L5.29-0.80C5.22-1.14 5.14-1.47 5.07-1.79C5.00-2.12 4.92-2.45 4.85-2.77L4.01-6.07L3.30-6.07L2.46-2.77C2.39-2.44 2.32-2.11 2.25-1.79C2.17-1.47 2.10-1.14 2.04-0.80L2.00-0.80C1.94-1.14 1.88-1.46 1.82-1.79C1.76-2.11 1.70-2.43 1.65-2.77L1.01-6.07ZM8.00-6.07L8.00 0L8.76 0L8.76-2.86L11.59-2.86L11.59 0L12.36 0L12.36-6.07L11.59-6.07L11.59-3.52L8.76-3.52L8.76-6.07ZM16.16 0.11C16.54 0.11 16.89 0.04 17.21-0.11C17.53-0.26 17.80-0.47 18.03-0.74C18.26-1.02 18.44-1.35 18.57-1.74C18.69-2.14 18.76-2.57 18.76-3.06C18.76-3.54 18.69-3.98 18.57-4.36C18.44-4.75 18.26-5.07 18.03-5.34C17.80-5.61 17.53-5.82 17.21-5.96C16.89-6.11 16.54-6.18 16.16-6.18C15.78-6.18 15.43-6.11 15.11-5.97C14.79-5.83 14.52-5.62 14.29-5.35C14.06-5.08 13.88-4.76 13.76-4.37C13.63-3.99 13.57-3.55 13.57-3.06C13.57-2.57 13.63-2.14 13.76-1.74C13.88-1.35 14.06-1.02 14.29-0.74C14.52-0.47 14.79-0.26 15.11-0.11C15.43 0.04 15.78 0.11 16.16 0.11ZM16.16-0.56C15.89-0.56 15.64-0.62 15.42-0.74C15.20-0.86 15.02-1.03 14.86-1.24C14.70-1.46 14.58-1.73 14.49-2.03C14.41-2.34 14.36-2.68 14.36-3.06C14.36-3.44 14.41-3.78 14.49-4.08C14.58-4.38 14.70-4.64 14.86-4.85C15.02-5.06 15.20-5.22 15.42-5.33C15.64-5.45 15.89-5.50 16.16-5.50C16.43-5.50 16.67-5.45 16.89-5.33C17.11-5.22 17.30-5.06 17.46-4.85C17.62-4.64 17.74-4.38 17.82-4.08C17.91-3.78 17.95-3.44 17.95-3.06C17.95-2.68 17.91-2.34 17.82-2.03C17.74-1.73 17.62-1.46 17.46-1.24C17.30-1.03 17.11-0.86 16.89-0.74C16.67-0.62 16.43-0.56 16.16-0.56ZM19.95-6.07L19.95 0L23.38 0L23.38-0.66L20.72-0.66L20.72-6.07ZM24.34-6.07L24.34 0L27.93 0L27.93-0.66L25.11-0.66L25.11-2.86L27.41-2.86L27.41-3.52L25.11-3.52L25.11-5.42L27.84-5.42L27.84-6.07ZM29.13-1.32L28.67-0.79C28.93-0.51 29.25-0.29 29.61-0.13C29.97 0.03 30.37 0.11 30.79 0.11C31.11 0.11 31.40 0.07 31.65-0.02C31.91-0.11 32.12-0.24 32.30-0.39C32.48-0.55 32.62-0.73 32.71-0.94C32.81-1.15 32.86-1.38 32.86-1.62C32.86-1.84 32.82-2.04 32.76-2.21C32.69-2.38 32.61-2.52 32.50-2.65C32.38-2.78 32.25-2.89 32.10-2.98C31.94-3.08 31.78-3.16 31.61-3.24L30.75-3.61C30.62-3.66 30.50-3.71 30.39-3.77C30.27-3.83 30.16-3.90 30.06-3.97C29.96-4.05 29.89-4.14 29.83-4.24C29.77-4.34 29.74-4.47 29.74-4.62C29.74-4.89 29.84-5.11 30.05-5.27C30.26-5.43 30.53-5.50 30.87-5.50C31.15-5.50 31.41-5.45 31.63-5.35C31.86-5.25 32.06-5.11 32.25-4.93L32.66-5.43C32.45-5.65 32.18-5.83 31.88-5.97C31.57-6.11 31.23-6.18 30.87-6.18C30.59-6.18 30.34-6.14 30.10-6.06C29.87-5.98 29.67-5.87 29.50-5.72C29.33-5.58 29.20-5.41 29.10-5.21C29.01-5.01 28.96-4.80 28.96-4.57C28.96-4.35 29.00-4.15 29.07-3.98C29.15-3.81 29.24-3.67 29.36-3.54C29.48-3.42 29.61-3.32 29.76-3.23C29.91-3.14 30.05-3.07 30.19-3.01L31.06-2.63C31.20-2.56 31.34-2.49 31.46-2.43C31.58-2.37 31.69-2.30 31.78-2.22C31.87-2.15 31.94-2.06 31.99-1.95C32.04-1.84 32.07-1.71 32.07-1.55C32.07-1.26 31.96-1.02 31.74-0.84C31.51-0.66 31.20-0.56 30.80-0.56C30.49-0.56 30.18-0.63 29.89-0.77C29.60-0.91 29.34-1.09 29.13-1.32ZM36.52-2.47L34.70-2.47L34.99-3.40C35.10-3.73 35.20-4.07 35.30-4.41C35.40-4.74 35.50-5.09 35.59-5.44L35.63-5.44C35.72-5.09 35.82-4.74 35.92-4.41C36.02-4.07 36.12-3.73 36.24-3.40ZM36.72-1.85L37.29 0L38.11 0L36.06-6.07L35.19-6.07L33.14 0L33.92 0L34.51-1.85ZM38.87-6.07L38.87 0L42.29 0L42.29-0.66L39.63-0.66L39.63-6.07ZM43.25-6.07L43.25 0L46.84 0L46.84-0.66L44.02-0.66L44.02-2.86L46.33-2.86L46.33-3.52L44.02-3.52L44.02-5.42L46.75-5.42L46.75-6.07ZM49.80-1.32L49.34-0.79C49.60-0.51 49.92-0.29 50.28-0.13C50.65 0.03 51.04 0.11 51.47 0.11C51.79 0.11 52.07 0.07 52.33-0.02C52.58-0.11 52.79-0.24 52.97-0.39C53.15-0.55 53.29-0.73 53.39-0.94C53.48-1.15 53.53-1.38 53.53-1.62C53.53-1.84 53.50-2.04 53.43-2.21C53.37-2.38 53.28-2.52 53.17-2.65C53.06-2.78 52.92-2.89 52.77-2.98C52.62-3.08 52.45-3.16 52.28-3.24L51.42-3.61C51.30-3.66 51.18-3.71 51.06-3.77C50.94-3.83 50.83-3.90 50.73-3.97C50.64-4.05 50.56-4.14 50.50-4.24C50.44-4.34 50.41-4.47 50.41-4.62C50.41-4.89 50.51-5.11 50.72-5.27C50.93-5.43 51.20-5.50 51.54-5.50C51.82-5.50 52.08-5.45 52.30-5.35C52.53-5.25 52.73-5.11 52.92-4.93L53.33-5.43C53.12-5.65 52.86-5.83 52.55-5.97C52.24-6.11 51.90-6.18 51.54-6.18C51.26-6.18 51.01-6.14 50.78-6.06C50.55-5.98 50.34-5.87 50.18-5.72C50.01-5.58 49.87-5.41 49.78-5.21C49.68-5.01 49.63-4.80 49.63-4.57C49.63-4.35 49.67-4.15 49.74-3.98C49.82-3.81 49.91-3.67 50.03-3.54C50.15-3.42 50.28-3.32 50.43-3.23C50.58-3.14 50.72-3.07 50.86-3.01L51.73-2.63C51.88-2.56 52.01-2.49 52.13-2.43C52.25-2.37 52.36-2.30 52.45-2.22C52.54-2.15 52.61-2.06 52.66-1.95C52.72-1.84 52.74-1.71 52.74-1.55C52.74-1.26 52.63-1.02 52.41-0.84C52.19-0.66 51.88-0.56 51.47-0.56C51.16-0.56 50.86-0.63 50.56-0.77C50.27-0.91 50.02-1.09 49.80-1.32ZM56.85 0.11C57.24 0.11 57.59 0.04 57.90-0.11C58.22-0.26 58.49-0.47 58.73-0.74C58.96-1.02 59.14-1.35 59.26-1.74C59.39-2.14 59.45-2.57 59.45-3.06C59.45-3.54 59.39-3.98 59.26-4.36C59.14-4.75 58.96-5.07 58.73-5.34C58.49-5.61 58.22-5.82 57.90-5.96C57.59-6.11 57.24-6.18 56.85-6.18C56.47-6.18 56.12-6.11 55.80-5.97C55.49-5.83 55.21-5.62 54.98-5.35C54.76-5.08 54.58-4.76 54.45-4.37C54.33-3.99 54.26-3.55 54.26-3.06C54.26-2.57 54.33-2.14 54.45-1.74C54.58-1.35 54.76-1.02 54.98-0.74C55.21-0.47 55.49-0.26 55.80-0.11C56.12 0.04 56.47 0.11 56.85 0.11ZM56.85-0.56C56.58-0.56 56.34-0.62 56.12-0.74C55.90-0.86 55.71-1.03 55.55-1.24C55.40-1.46 55.27-1.73 55.19-2.03C55.10-2.34 55.06-2.68 55.06-3.06C55.06-3.44 55.10-3.78 55.19-4.08C55.27-4.38 55.40-4.64 55.55-4.85C55.71-5.06 55.90-5.22 56.12-5.33C56.34-5.45 56.58-5.50 56.85-5.50C57.12-5.50 57.37-5.45 57.59-5.33C57.81-5.22 58.00-5.06 58.15-4.85C58.31-4.64 58.43-4.38 58.52-4.08C58.60-3.78 58.65-3.44 58.65-3.06C58.65-2.68 58.60-2.34 58.52-2.03C58.43-1.73 58.31-1.46 58.15-1.24C58.00-1.03 57.81-0.86 57.59-0.74C57.37-0.62 57.12-0.56 56.85-0.56ZM60.65-6.07L60.65 0L64.07 0L64.07-0.66L61.42-0.66L61.42-6.07ZM64.74-6.07L64.74-2.51C64.74-2.02 64.80-1.61 64.91-1.28C65.02-0.94 65.17-0.67 65.36-0.47C65.56-0.26 65.79-0.11 66.06-0.02C66.33 0.07 66.62 0.11 66.92 0.11C67.23 0.11 67.52 0.07 67.78-0.02C68.05-0.11 68.28-0.26 68.47-0.47C68.67-0.67 68.82-0.94 68.93-1.28C69.04-1.61 69.10-2.02 69.10-2.51L69.10-6.07L68.36-6.07L68.36-2.49C68.36-2.12 68.32-1.82 68.25-1.57C68.17-1.33 68.07-1.13 67.94-0.98C67.81-0.83 67.66-0.73 67.49-0.66C67.32-0.60 67.13-0.56 66.92-0.56C66.73-0.56 66.54-0.60 66.37-0.66C66.20-0.73 66.05-0.83 65.92-0.98C65.79-1.13 65.69-1.33 65.62-1.57C65.55-1.82 65.51-2.12 65.51-2.49L65.51-6.07ZM71.89-5.42L71.89 0L72.66 0L72.66-5.42L74.49-5.42L74.49-6.07L70.05-6.07L70.05-5.42ZM75.48-6.07L75.48 0L76.25 0L76.25-6.07ZM80.04 0.11C80.42 0.11 80.77 0.04 81.09-0.11C81.41-0.26 81.68-0.47 81.91-0.74C82.15-1.02 82.32-1.35 82.45-1.74C82.58-2.14 82.64-2.57 82.64-3.06C82.64-3.54 82.58-3.98 82.45-4.36C82.32-4.75 82.15-5.07 81.91-5.34C81.68-5.61 81.41-5.82 81.09-5.96C80.77-6.11 80.42-6.18 80.04-6.18C79.66-6.18 79.31-6.11 78.99-5.97C78.67-5.83 78.40-5.62 78.17-5.35C77.94-5.08 77.77-4.76 77.64-4.37C77.51-3.99 77.45-3.55 77.45-3.06C77.45-2.57 77.51-2.14 77.64-1.74C77.77-1.35 77.94-1.02 78.17-0.74C78.40-0.47 78.67-0.26 78.99-0.11C79.31 0.04 79.66 0.11 80.04 0.11ZM80.04-0.56C79.77-0.56 79.52-0.62 79.31-0.74C79.09-0.86 78.90-1.03 78.74-1.24C78.58-1.46 78.46-1.73 78.38-2.03C78.29-2.34 78.25-2.68 78.25-3.06C78.25-3.44 78.29-3.78 78.38-4.08C78.46-4.38 78.58-4.64 78.74-4.85C78.90-5.06 79.09-5.22 79.31-5.33C79.52-5.45 79.77-5.50 80.04-5.50C80.31-5.50 80.56-5.45 80.78-5.33C81.00-5.22 81.18-5.06 81.34-4.85C81.50-4.64 81.62-4.38 81.71-4.08C81.79-3.78 81.84-3.44 81.84-3.06C81.84-2.68 81.79-2.34 81.71-2.03C81.62-1.73 81.50-1.46 81.34-1.24C81.18-1.03 81.00-0.86 80.78-0.74C80.56-0.62 80.31-0.56 80.04-0.56ZM83.84-6.07L83.84 0L84.57 0L84.57-3.17C84.57-3.49 84.56-3.81 84.54-4.13C84.51-4.45 84.49-4.76 84.47-5.07L84.50-5.07L85.16-3.82L87.36 0L88.16 0L88.16-6.07L87.43-6.07L87.43-2.93C87.43-2.61 87.44-2.29 87.46-1.96C87.48-1.63 87.50-1.31 87.52-1.00L87.48-1.00L86.83-2.26L84.63-6.07ZM89.73-1.32L89.27-0.79C89.54-0.51 89.85-0.29 90.21-0.13C90.58 0.03 90.97 0.11 91.40 0.11C91.72 0.11 92.01 0.07 92.26-0.02C92.51-0.11 92.73-0.24 92.91-0.39C93.09-0.55 93.22-0.73 93.32-0.94C93.41-1.15 93.46-1.38 93.46-1.62C93.46-1.84 93.43-2.04 93.36-2.21C93.30-2.38 93.21-2.52 93.10-2.65C92.99-2.78 92.86-2.89 92.70-2.98C92.55-3.08 92.39-3.16 92.21-3.24L91.35-3.61C91.23-3.66 91.11-3.71 90.99-3.77C90.87-3.83 90.77-3.90 90.67-3.97C90.57-4.05 90.49-4.14 90.43-4.24C90.37-4.34 90.34-4.47 90.34-4.62C90.34-4.89 90.45-5.11 90.65-5.27C90.86-5.43 91.13-5.50 91.47-5.50C91.76-5.50 92.01-5.45 92.24-5.35C92.46-5.25 92.67-5.11 92.85-4.93L93.27-5.43C93.05-5.65 92.79-5.83 92.48-5.97C92.17-6.11 91.84-6.18 91.47-6.18C91.19-6.18 90.94-6.14 90.71-6.06C90.48-5.98 90.28-5.87 90.11-5.72C89.94-5.58 89.81-5.41 89.71-5.21C89.61-5.01 89.57-4.80 89.57-4.57C89.57-4.35 89.60-4.15 89.68-3.98C89.75-3.81 89.85-3.67 89.96-3.54C90.08-3.42 90.21-3.32 90.36-3.23C90.51-3.14 90.66-3.07 90.80-3.01L91.67-2.63C91.81-2.56 91.94-2.49 92.06-2.43C92.19-2.37 92.29-2.30 92.38-2.22C92.47-2.15 92.54-2.06 92.60-1.95C92.65-1.84 92.68-1.71 92.68-1.55C92.68-1.26 92.56-1.02 92.34-0.84C92.12-0.66 91.81-0.56 91.41-0.56C91.09-0.56 90.79-0.63 90.50-0.77C90.20-0.91 89.95-1.09 89.73-1.32ZM96.31-6.07L96.31 0L97.08 0L97.08-2.72L99.39-2.72L99.39-3.37L97.08-3.37L97.08-5.42L99.80-5.42L99.80-6.07ZM102.92 0.11C103.30 0.11 103.65 0.04 103.97-0.11C104.28-0.26 104.56-0.47 104.79-0.74C105.02-1.02 105.20-1.35 105.33-1.74C105.45-2.14 105.52-2.57 105.52-3.06C105.52-3.54 105.45-3.98 105.33-4.36C105.20-4.75 105.02-5.07 104.79-5.34C104.56-5.61 104.28-5.82 103.97-5.96C103.65-6.11 103.30-6.18 102.92-6.18C102.53-6.18 102.18-6.11 101.87-5.97C101.55-5.83 101.27-5.62 101.05-5.35C100.82-5.08 100.64-4.76 100.51-4.37C100.39-3.99 100.33-3.55 100.33-3.06C100.33-2.57 100.39-2.14 100.51-1.74C100.64-1.35 100.82-1.02 101.05-0.74C101.27-0.47 101.55-0.26 101.87-0.11C102.18 0.04 102.53 0.11 102.92 0.11ZM102.92-0.56C102.64-0.56 102.40-0.62 102.18-0.74C101.96-0.86 101.77-1.03 101.62-1.24C101.46-1.46 101.34-1.73 101.25-2.03C101.16-2.34 101.12-2.68 101.12-3.06C101.12-3.44 101.16-3.78 101.25-4.08C101.34-4.38 101.46-4.64 101.62-4.85C101.77-5.06 101.96-5.22 102.18-5.33C102.40-5.45 102.64-5.50 102.92-5.50C103.19-5.50 103.43-5.45 103.65-5.33C103.87-5.22 104.06-5.06 104.22-4.85C104.37-4.64 104.49-4.38 104.58-4.08C104.67-3.78 104.71-3.44 104.71-3.06C104.71-2.68 104.67-2.34 104.58-2.03C104.49-1.73 104.37-1.46 104.22-1.24C104.06-1.03 103.87-0.86 103.65-0.74C103.43-0.62 103.19-0.56 102.92-0.56ZM107.48-3.19L107.48-5.45L108.50-5.45C108.97-5.45 109.34-5.37 109.59-5.21C109.84-5.05 109.97-4.77 109.97-4.37C109.97-3.97 109.84-3.68 109.59-3.48C109.34-3.29 108.97-3.19 108.50-3.19ZM110.04 0L110.91 0L109.38-2.65C109.79-2.75 110.12-2.94 110.37-3.23C110.61-3.51 110.74-3.89 110.74-4.37C110.74-4.68 110.68-4.95 110.58-5.16C110.47-5.38 110.33-5.55 110.14-5.69C109.95-5.83 109.73-5.92 109.46-5.98C109.20-6.04 108.92-6.07 108.61-6.07L106.71-6.07L106.71 0L107.48 0L107.48-2.56L108.58-2.56ZM114.51-3.19L114.51-5.45L115.52-5.45C116.00-5.45 116.36-5.37 116.62-5.21C116.87-5.05 117.00-4.77 117.00-4.37C117.00-3.97 116.87-3.68 116.62-3.48C116.36-3.29 116.00-3.19 115.52-3.19ZM117.07 0L117.94 0L116.40-2.65C116.82-2.75 117.15-2.94 117.39-3.23C117.64-3.51 117.76-3.89 117.76-4.37C117.76-4.68 117.71-4.95 117.61-5.16C117.50-5.38 117.35-5.55 117.17-5.69C116.98-5.83 116.75-5.92 116.49-5.98C116.23-6.04 115.94-6.07 115.64-6.07L113.74-6.07L113.74 0L114.51 0L114.51-2.56L115.61-2.56ZM119.01-6.07L119.01 0L122.60 0L122.60-0.66L119.77-0.66L119.77-2.86L122.08-2.86L122.08-3.52L119.77-3.52L119.77-5.42L122.50-5.42L122.50-6.07ZM125.03-5.42L125.03 0L125.81 0L125.81-5.42L127.64-5.42L127.64-6.07L123.20-6.07L123.20-5.42ZM130.83-2.47L129.01-2.47L129.30-3.40C129.41-3.73 129.51-4.07 129.61-4.41C129.71-4.74 129.81-5.09 129.90-5.44L129.94-5.44C130.04-5.09 130.13-4.74 130.23-4.41C130.33-4.07 130.44-3.73 130.55-3.40ZM131.03-1.85L131.60 0L132.43 0L130.37-6.07L129.50-6.07L127.45 0L128.23 0L128.82-1.85ZM133.18-6.07L133.18 0L133.95 0L133.95-6.07ZM135.50-6.07L135.50 0L138.93 0L138.93-0.66L136.27-0.66L136.27-6.07ZM141.67-1.32L141.21-0.79C141.47-0.51 141.79-0.29 142.15-0.13C142.51 0.03 142.91 0.11 143.34 0.11C143.66 0.11 143.94 0.07 144.20-0.02C144.45-0.11 144.66-0.24 144.84-0.39C145.02-0.55 145.16-0.73 145.25-0.94C145.35-1.15 145.40-1.38 145.40-1.62C145.40-1.84 145.37-2.04 145.30-2.21C145.24-2.38 145.15-2.52 145.04-2.65C144.93-2.78 144.79-2.89 144.64-2.98C144.49-3.08 144.32-3.16 144.15-3.24L143.29-3.61C143.17-3.66 143.05-3.71 142.93-3.77C142.81-3.83 142.70-3.90 142.60-3.97C142.51-4.05 142.43-4.14 142.37-4.24C142.31-4.34 142.28-4.47 142.28-4.62C142.28-4.89 142.38-5.11 142.59-5.27C142.80-5.43 143.07-5.50 143.41-5.50C143.69-5.50 143.95-5.45 144.17-5.35C144.40-5.25 144.60-5.11 144.79-4.93L145.20-5.43C144.99-5.65 144.73-5.83 144.42-5.97C144.11-6.11 143.77-6.18 143.41-6.18C143.13-6.18 142.88-6.14 142.65-6.06C142.41-5.98 142.21-5.87 142.04-5.72C141.88-5.58 141.74-5.41 141.65-5.21C141.55-5.01 141.50-4.80 141.50-4.57C141.50-4.35 141.54-4.15 141.61-3.98C141.69-3.81 141.78-3.67 141.90-3.54C142.02-3.42 142.15-3.32 142.30-3.23C142.45-3.14 142.59-3.07 142.73-3.01L143.60-2.63C143.75-2.56 143.88-2.49 144.00-2.43C144.12-2.37 144.23-2.30 144.32-2.22C144.41-2.15 144.48-2.06 144.53-1.95C144.59-1.84 144.61-1.71 144.61-1.55C144.61-1.26 144.50-1.02 144.28-0.84C144.06-0.66 143.75-0.56 143.34-0.56C143.03-0.56 142.73-0.63 142.43-0.77C142.14-0.91 141.89-1.09 141.67-1.32ZM146.46-6.07L146.46-2.51C146.46-2.02 146.51-1.61 146.62-1.28C146.73-0.94 146.89-0.67 147.08-0.47C147.27-0.26 147.51-0.11 147.77-0.02C148.04 0.07 148.33 0.11 148.64 0.11C148.95 0.11 149.23 0.07 149.50-0.02C149.76-0.11 149.99-0.26 150.19-0.47C150.38-0.67 150.54-0.94 150.65-1.28C150.76-1.61 150.81-2.02 150.81-2.51L150.81-6.07L150.07-6.07L150.07-2.49C150.07-2.12 150.04-1.82 149.96-1.57C149.89-1.33 149.79-1.13 149.66-0.98C149.53-0.83 149.38-0.73 149.20-0.66C149.03-0.60 148.84-0.56 148.64-0.56C148.44-0.56 148.26-0.60 148.08-0.66C147.91-0.73 147.76-0.83 147.64-0.98C147.51-1.13 147.41-1.33 147.33-1.57C147.26-1.82 147.22-2.12 147.22-2.49L147.22-6.07ZM151.99-3.03C151.99-2.54 152.06-2.10 152.19-1.71C152.32-1.32 152.51-0.99 152.74-0.72C152.98-0.45 153.26-0.24 153.59-0.10C153.91 0.04 154.26 0.11 154.65 0.11C155.03 0.11 155.38 0.03 155.68-0.12C155.98-0.27 156.26-0.49 156.50-0.77L156.06-1.24C155.86-1.02 155.66-0.86 155.44-0.74C155.22-0.62 154.96-0.56 154.66-0.56C154.37-0.56 154.11-0.62 153.88-0.74C153.65-0.86 153.46-1.02 153.30-1.24C153.13-1.46 153.01-1.72 152.92-2.02C152.83-2.33 152.79-2.67 152.79-3.05C152.79-3.43 152.83-3.77 152.93-4.07C153.02-4.37 153.15-4.63 153.31-4.84C153.48-5.06 153.68-5.22 153.92-5.33C154.15-5.45 154.41-5.50 154.70-5.50C154.96-5.50 155.19-5.45 155.38-5.35C155.58-5.25 155.75-5.11 155.91-4.94L156.35-5.43C156.17-5.63 155.94-5.80 155.66-5.95C155.39-6.10 155.06-6.18 154.69-6.18C154.30-6.18 153.94-6.11 153.61-5.96C153.28-5.82 153.00-5.61 152.76-5.34C152.52-5.07 152.33-4.74 152.19-4.35C152.06-3.96 151.99-3.52 151.99-3.03ZM156.90-3.03C156.90-2.54 156.96-2.10 157.10-1.71C157.23-1.32 157.41-0.99 157.65-0.72C157.89-0.45 158.17-0.24 158.49-0.10C158.82 0.04 159.17 0.11 159.55 0.11C159.94 0.11 160.29 0.03 160.59-0.12C160.89-0.27 161.16-0.49 161.40-0.77L160.97-1.24C160.77-1.02 160.56-0.86 160.34-0.74C160.12-0.62 159.87-0.56 159.57-0.56C159.28-0.56 159.02-0.62 158.79-0.74C158.56-0.86 158.36-1.02 158.20-1.24C158.04-1.46 157.92-1.72 157.83-2.02C157.74-2.33 157.69-2.67 157.69-3.05C157.69-3.43 157.74-3.77 157.83-4.07C157.92-4.37 158.05-4.63 158.22-4.84C158.39-5.06 158.59-5.22 158.82-5.33C159.06-5.45 159.32-5.50 159.61-5.50C159.87-5.50 160.09-5.45 160.29-5.35C160.48-5.25 160.66-5.11 160.82-4.94L161.25-5.43C161.08-5.63 160.85-5.80 160.57-5.95C160.29-6.10 159.97-6.18 159.60-6.18C159.21-6.18 158.85-6.11 158.52-5.96C158.19-5.82 157.91-5.61 157.66-5.34C157.42-5.07 157.24-4.74 157.10-4.35C156.96-3.96 156.90-3.52 156.90-3.03ZM162.42-6.07L162.42 0L166.01 0L166.01-0.66L163.19-0.66L163.19-2.86L165.49-2.86L165.49-3.52L163.19-3.52L163.19-5.42L165.92-5.42L165.92-6.07ZM167.21-1.32L166.75-0.79C167.01-0.51 167.33-0.29 167.69-0.13C168.05 0.03 168.45 0.11 168.87 0.11C169.19 0.11 169.48 0.07 169.73-0.02C169.99-0.11 170.20-0.24 170.38-0.39C170.56-0.55 170.70-0.73 170.79-0.94C170.89-1.15 170.94-1.38 170.94-1.62C170.94-1.84 170.90-2.04 170.84-2.21C170.77-2.38 170.69-2.52 170.58-2.65C170.46-2.78 170.33-2.89 170.18-2.98C170.02-3.08 169.86-3.16 169.69-3.24L168.83-3.61C168.70-3.66 168.58-3.71 168.47-3.77C168.35-3.83 168.24-3.90 168.14-3.97C168.04-4.05 167.97-4.14 167.91-4.24C167.85-4.34 167.82-4.47 167.82-4.62C167.82-4.89 167.92-5.11 168.13-5.27C168.34-5.43 168.61-5.50 168.95-5.50C169.23-5.50 169.49-5.45 169.71-5.35C169.94-5.25 170.14-5.11 170.33-4.93L170.74-5.43C170.53-5.65 170.26-5.83 169.96-5.97C169.65-6.11 169.31-6.18 168.95-6.18C168.67-6.18 168.42-6.14 168.18-6.06C167.95-5.98 167.75-5.87 167.58-5.72C167.41-5.58 167.28-5.41 167.19-5.21C167.09-5.01 167.04-4.80 167.04-4.57C167.04-4.35 167.08-4.15 167.15-3.98C167.23-3.81 167.32-3.67 167.44-3.54C167.56-3.42 167.69-3.32 167.84-3.23C167.99-3.14 168.13-3.07 168.27-3.01L169.14-2.63C169.28-2.56 169.42-2.49 169.54-2.43C169.66-2.37 169.77-2.30 169.86-2.22C169.95-2.15 170.02-2.06 170.07-1.95C170.12-1.84 170.15-1.71 170.15-1.55C170.15-1.26 170.04-1.02 169.82-0.84C169.60-0.66 169.28-0.56 168.88-0.56C168.57-0.56 168.26-0.63 167.97-0.77C167.68-0.91 167.42-1.09 167.21-1.32ZM171.91-1.32L171.45-0.79C171.71-0.51 172.03-0.29 172.39-0.13C172.76 0.03 173.15 0.11 173.58 0.11C173.90 0.11 174.18 0.07 174.44-0.02C174.69-0.11 174.91-0.24 175.08-0.39C175.26-0.55 175.40-0.73 175.50-0.94C175.59-1.15 175.64-1.38 175.64-1.62C175.64-1.84 175.61-2.04 175.54-2.21C175.48-2.38 175.39-2.52 175.28-2.65C175.17-2.78 175.03-2.89 174.88-2.98C174.73-3.08 174.56-3.16 174.39-3.24L173.53-3.61C173.41-3.66 173.29-3.71 173.17-3.77C173.05-3.83 172.94-3.90 172.85-3.97C172.75-4.05 172.67-4.14 172.61-4.24C172.55-4.34 172.52-4.47 172.52-4.62C172.52-4.89 172.62-5.11 172.83-5.27C173.04-5.43 173.31-5.50 173.65-5.50C173.93-5.50 174.19-5.45 174.41-5.35C174.64-5.25 174.84-5.11 175.03-4.93L175.44-5.43C175.23-5.65 174.97-5.83 174.66-5.97C174.35-6.11 174.01-6.18 173.65-6.18C173.37-6.18 173.12-6.14 172.89-6.06C172.66-5.98 172.46-5.87 172.29-5.72C172.12-5.58 171.98-5.41 171.89-5.21C171.79-5.01 171.74-4.80 171.74-4.57C171.74-4.35 171.78-4.15 171.86-3.98C171.93-3.81 172.03-3.67 172.14-3.54C172.26-3.42 172.39-3.32 172.54-3.23C172.69-3.14 172.83-3.07 172.97-3.01L173.84-2.63C173.99-2.56 174.12-2.49 174.24-2.43C174.37-2.37 174.47-2.30 174.56-2.22C174.65-2.15 174.72-2.06 174.77-1.95C174.83-1.84 174.85-1.71 174.85-1.55C174.85-1.26 174.74-1.02 174.52-0.84C174.30-0.66 173.99-0.56 173.59-0.56C173.27-0.56 172.97-0.63 172.67-0.77C172.38-0.91 172.13-1.09 171.91-1.32Z" transform="translate(-0.2127768926350414, 6.179781055661202)"></path></g></g></g></g></g><defs v-gra="od"></defs></svg>